<svg  width="100px" height="100.00px" viewBox="0 0 1024 1024" version="1.1" xmlns="http://www.w3.org/2000/svg"><path d="M75.5 512c0 239.7 195.4 434 436.5 434s436.5-194.3 436.5-434S753.1 78 512 78 75.5 272.3 75.5 512z" fill="#f1f1f1" /><path d="M248.6 567.8c3.1-30.6-16.6-59.2-42.4-63.8-25.9-4.6-49.3 16.5-52.4 47-0.8 8.2-0.1 16.7 1 25 2.7 30.8 25.9 53.9 51.8 51.7s44.7-29.1 42-59.9zM385.5 467.2c1.3-24.6-15.3-45.4-37.1-46.5-21.8-1.1-40.4 17.9-41.7 42.4-1.3 24.6 15.3 45.4 37.1 46.5s40.4-17.8 41.7-42.4zM350.4 729.5c-8.2-20.2-28.5-31-45.5-24.2-16.9 6.8-24.1 28.8-15.9 49 8.2 20.2 28.5 31 45.5 24.2 16.9-6.9 24-28.8 15.9-49zM715.8 636.3c-8.2-20.2-28.5-31-45.5-24.2-16.9 6.8-24.1 28.8-15.9 49 8.2 20.2 28.5 31 45.5 24.2 16.9-6.9 24-28.8 15.9-49zM547 811c-21.2-4.9-41.8 5.6-45.9 23.4s9.8 36.2 31 41.1c12.7 15.7 48.8 14.2 66.3 4.5s21.3-30.3 8.6-46c-12-15-34.9-20.3-60-23z" fill="#F3D48B" /><path d="M90.3 617.3c25.5 94.2 80.2 178.2 155.3 236.7-11.5-39.5-22.9-77.6 14-105.6 42-33.1 22.9-61.1 33.1-103.1 14-58.5 67.5-44.5 67.5-117.1s35.6-67.5 49.6-117.1c14-49.6-8.9-47.1 0-91.6 14-16.5-173.1 8.9-173.1 8.9l-6.4 2.5s-40.7 21.6-52.2 53.5c-8.9 33.1 2.5 39.5-33.1 80.2-28 30.5 5.1 67.5-28 94.2-17.8 16.5-24.2 39.4-26.7 58.5z" fill="#A4D4E8" /><path d="M246.8 868c-2.5 0-6.4-1.3-8.9-2.5C160.3 804.4 103 717.9 77.5 621.1V616c2.5-20.4 8.9-47.1 33.1-67.5 11.5-10.2 11.5-19.1 11.5-36.9-1.3-16.5-1.3-36.9 15.3-56 22.9-26.7 24.2-35.6 25.5-50.9 1.3-6.4 1.3-14 3.8-24.2 12.7-36.9 57.3-61.1 59.8-61.1l6.4-3.8c1.3 0 2.5-1.3 3.8-1.3 175.6-24.2 182-12.7 187.1-3.8 1.3 2.5 2.5 7.6 1.3 11.5-3.8 17.8-1.3 25.5 1.3 35.6 3.8 12.7 6.4 26.7-1.3 57.3-6.4 22.9-17.8 35.6-26.7 47.1-12.7 15.3-22.9 28-22.9 66.2 0 47.1-20.4 63.6-38.2 78.9-12.7 10.2-24.2 20.4-29.3 42-3.8 12.7-3.8 24.2-3.8 34.4-1.3 24.2-1.3 49.6-34.4 76.4-28 21.6-21.6 48.4-8.9 91.6 1.3 6.4 0 11.5-5.1 15.3-3.9 0-6.4 1.2-9 1.2zM104.3 616c20.4 76.4 62.4 145.1 118.4 198.5-3.8-28 0-56 29.3-77.6 22.9-17.8 22.9-33.1 24.2-54.7 0-11.5 1.3-25.5 5.1-40.7 7.6-30.5 24.2-44.5 38.2-56 16.5-14 28-22.9 28-57.3 0-48.4 15.3-67.5 29.3-84 8.9-10.2 16.5-20.4 21.6-36.9 6.4-22.9 3.8-31.8 1.3-43.3-2.5-8.9-5.1-19.1-3.8-36.9-25.5-1.3-94.2 6.4-154 14l-3.8 2.5c-8.9 5.1-36.9 24.2-44.5 44.5-1.3 7.6-2.5 14-2.5 19.1-2.5 20.4-5.1 34.4-33.1 66.2-8.9 10.2-8.9 20.4-8.9 36.9 1.3 17.8 1.3 40.7-20.4 59.8-16.8 11.6-21.9 29.4-24.4 45.9z" fill="#2C3146" /><path d="M185.7 350c-5.1 0-11.5-5.1-14-11.5 0-5.1 2.5-14 11.5-14 0 0 138.7-28 250.7-28 8.9 0 14 5.1 14 14s-5.1 14-14 14C324.5 322 188.3 350 185.7 350c2.6 0 0 0 0 0z" fill="#2C3146" /><path d="M935.4 614.8c-24.2 94.2-80.2 178.2-154 236.7 11.5-39.5 21.6-77.6-14-105.6-40.7-33.1-21.6-61.1-33.1-103.1-14-58.5-66.2-44.5-66.2-117.1s-35.6-67.5-49.6-117.1c-14-49.6 7.6-47.1 0-91.6-14-16.5 170.5 8.9 170.5 8.9l5.1 2.5s42 22.9 52.2 53.5c7.6 33.1-2.5 39.5 33.1 80.2 28 30.5-5.1 67.5 28 94.2 20.4 16.5 28 38.1 28 58.5z" fill="#A4D4E8" /><path d="M781.4 865.5c-2.5 0-5.1-1.3-7.6-2.5-5.1-3.8-7.6-10.2-5.1-15.3 11.5-43.3 17.8-70-8.9-91.6-33.1-26.7-33.1-52.2-34.4-76.4 0-11.5 0-21.6-3.8-34.4-5.1-21.6-16.5-31.8-29.3-42-17.8-15.3-38.2-31.8-38.2-78.9 0-38.2-10.2-50.9-22.9-66.2-8.9-11.5-20.4-24.2-26.7-47.1-8.9-30.5-5.1-44.5-1.3-57.3 2.5-8.9 5.1-17.8 1.3-35.6-1.3-3.8-1.3-8.9 1.3-11.5 5.1-8.9 11.5-20.4 185.8 3.8 1.3 0 2.5 0 3.8 1.3l5.1 2.5c2.5 1.3 47.1 25.5 59.8 61.1 2.5 11.5 3.8 19.1 5.1 25.5 1.3 15.3 2.5 24.2 25.5 50.9 16.5 19.1 15.3 39.5 15.3 56-1.3 17.8-1.3 28 10.2 36.9 20.4 17.8 33.1 43.3 33.1 68.7v3.8C924 714 868 800.6 790.3 861.7c-2.5 2.5-5 3.8-8.9 3.8zM635.1 324.6c1.3 16.5-1.3 26.7-2.5 36.9-2.5 11.5-5.1 20.4 1.3 43.3 5.1 17.8 12.7 26.7 21.6 36.9 14 16.5 29.3 35.6 29.3 84 0 33.1 11.5 43.3 28 57.3 14 11.5 30.5 25.5 38.2 56 3.8 15.3 3.8 28 5.1 40.7 0 21.6 1.3 36.9 24.2 54.7 28 21.6 31.8 49.6 28 77.6 56-53.5 96.7-123.5 117.1-199.8 0-17.8-8.9-34.4-22.9-45.8-22.9-19.1-21.6-42-20.4-59.8 1.3-16.5 1.3-26.7-7.6-36.9-28-31.8-30.5-45.8-33.1-66.2-1.3-6.4-1.3-12.7-3.8-20.4-7.6-19.1-35.6-38.2-45.8-44.5l-2.5-1.3c-62.6-6.3-128.8-12.7-154.2-12.7z" fill="#2C3146" /><path d="M842.5 347.5C840 347.5 705 322 598.1 322c-7.6 0-14-5.1-14-14s5.1-14 14-14c110.7 0 248.2 25.5 248.2 28 5.1 0 11.5 8.9 11.5 14-5.1 5.1-10.2 11.5-15.3 11.5zM575.6 472.5c-8.9 0-16.5-5.1-16.5-16.5v-47.1c0-19.1-14-33.1-33.1-33.1h-19.1c-19.1 0-33.1 14-33.1 33.1V456c0 8.9-5.1 16.5-16.5 16.5-8.9 0-16.5-5.1-16.5-16.5v-47.1c0-35.6 28-63.6 63.6-63.6h25.5c35.6 0 61.1 28 61.1 63.6V456c-0.1 8.9-6.5 16.5-15.4 16.5zM347.8 191.3h-2.5c-5.1 0-11.5-5.1-8.9-11.5 0-5.1 5.1-11.5 11.5-8.9 0 0 42 2.5 53.5-28 2.5-5.1 8.9-8.9 14-5.1 5.1 2.5 8.9 8.9 5.1 14-16.7 36.9-61.2 39.5-72.7 39.5zM671.1 191.3c-14 0-56-2.5-70-39.5-2.5-5.1 0-11.5 5.1-14s11.5 0 14 5.1c11.5 30.5 53.5 28 53.5 28 5.1 0 11.5 2.5 11.5 8.9 0 5.1-2.5 11.5-8.9 11.5h-5.2z" fill="#2C3146" /><path d="M512 64C264.6 64 64 264.6 64 512s200.6 448 448 448 448-200.6 448-448S759.4 64 512 64z m0 870.5C279 934.5 89.5 745 89.5 512S279 89.5 512 89.5 934.5 279 934.5 512 745 934.5 512 934.5z" fill="#2C3146" /></svg>
